<?xml version="1.0" encoding="UTF-8" standalone="no"?>
<!-- Created with Inkscape (http://www.inkscape.org/) -->

<svg
   xmlns:dc="http://purl.org/dc/elements/1.1/"
   xmlns:cc="http://creativecommons.org/ns#"
   xmlns:rdf="http://www.w3.org/1999/02/22-rdf-syntax-ns#"
   xmlns:svg="http://www.w3.org/2000/svg"
   xmlns="http://www.w3.org/2000/svg"
   xmlns:sodipodi="http://sodipodi.sourceforge.net/DTD/sodipodi-0.dtd"
   xmlns:inkscape="http://www.inkscape.org/namespaces/inkscape"
   width="55mm"
   height="85mm"
   viewBox="0 0 194.88189 301.1811"
   id="svg2"
   version="1.1"
   inkscape:version="0.92.3 (2405546, 2018-03-11)"
   sodipodi:docname="rueckseite.svg">
  <defs
     id="defs4">
    <marker
       inkscape:stockid="TriangleInL"
       orient="auto"
       refY="0"
       refX="0"
       id="TriangleInL"
       style="overflow:visible"
       inkscape:isstock="true">
      <path
         id="path1087"
         d="M 5.77,0 -2.88,5 V -5 Z"
         style="fill:#c70000;fill-opacity:1;fill-rule:evenodd;stroke:#c70000;stroke-width:1.00000003pt;stroke-opacity:1"
         transform="scale(-0.8)"
         inkscape:connector-curvature="0" />
    </marker>
    <marker
       inkscape:stockid="Arrow2Lend"
       orient="auto"
       refY="0"
       refX="0"
       id="Arrow2Lend"
       style="overflow:visible"
       inkscape:isstock="true">
      <path
         id="path975"
         style="fill:#000000;fill-opacity:1;fill-rule:evenodd;stroke:#000000;stroke-width:0.625;stroke-linejoin:round;stroke-opacity:1"
         d="M 8.7185878,4.0337352 -2.2072895,0.01601326 8.7185884,-4.0017078 c -1.7454984,2.3720609 -1.7354408,5.6174519 -6e-7,8.035443 z"
         transform="matrix(-1.1,0,0,-1.1,-1.1,0)"
         inkscape:connector-curvature="0" />
    </marker>
  </defs>
  <sodipodi:namedview
     id="base"
     pagecolor="#ffffff"
     bordercolor="#666666"
     borderopacity="1.0"
     inkscape:pageopacity="0.0"
     inkscape:pageshadow="2"
     inkscape:zoom="2.8"
     inkscape:cx="46.63809"
     inkscape:cy="162.01109"
     inkscape:document-units="px"
     inkscape:current-layer="layer1"
     showgrid="false"
     inkscape:window-width="1920"
     inkscape:window-height="1025"
     inkscape:window-x="0"
     inkscape:window-y="0"
     inkscape:window-maximized="1"
     fit-margin-top="0"
     fit-margin-left="0"
     fit-margin-right="0"
     fit-margin-bottom="0" />
  <metadata
     id="metadata7">
    <rdf:RDF>
      <cc:Work
         rdf:about="">
        <dc:format>image/svg+xml</dc:format>
        <dc:type
           rdf:resource="http://purl.org/dc/dcmitype/StillImage" />
        <dc:title></dc:title>
      </cc:Work>
    </rdf:RDF>
  </metadata>
  <g
     inkscape:label="Layer 1"
     inkscape:groupmode="layer"
     id="layer1"
     transform="translate(504.76077,-756.27234)">
    <path
       style="opacity:1;fill:none;stroke:#000000;stroke-width:0.9375px;stroke-linecap:butt;stroke-linejoin:miter;stroke-opacity:1"
       d="m -419.67864,973.14473 75.14739,-3.81824 m -157.00252,8.81532 31.89072,-2.09684"
       id="path850"
       inkscape:connector-curvature="0"
       sodipodi:nodetypes="cccc" />
    <path
       style="opacity:1;fill:none;stroke:#000000;stroke-width:0.9375px;stroke-linecap:butt;stroke-linejoin:miter;stroke-opacity:1"
       d="m -319.75446,765.08542 -25.44642,203.90624"
       id="path852"
       inkscape:connector-curvature="0"
       sodipodi:nodetypes="cc" />
    <path
       style="opacity:1;fill:none;stroke:#000000;stroke-width:0.9375px;stroke-linecap:butt;stroke-linejoin:miter;stroke-opacity:1"
       d="m -437.27678,995.44256 91.07143,-5.35715"
       id="path854"
       inkscape:connector-curvature="0" />
    <path
       style="opacity:1;fill:none;stroke:#000000;stroke-width:0.9375px;stroke-linecap:butt;stroke-linejoin:miter;stroke-opacity:1"
       d="m -443.63839,1052.3622 6.69643,-56.91964"
       id="path860"
       inkscape:connector-curvature="0"
       sodipodi:nodetypes="cc" />
    <path
       style="opacity:1;fill:none;stroke:#000000;stroke-width:0.9375px;stroke-linecap:butt;stroke-linejoin:miter;stroke-opacity:1"
       d="m -501.89731,997.78631 42.85714,-3.0134"
       id="path862"
       inkscape:connector-curvature="0" />
    <path
       style="opacity:1;fill:none;stroke:#000000;stroke-width:0.9375px;stroke-linecap:butt;stroke-linejoin:miter;stroke-opacity:1"
       d="m -315.06696,918.09881 -5.04263,41.83584 7.34576,-1.18376"
       id="path866"
       inkscape:connector-curvature="0"
       sodipodi:nodetypes="ccc" />
    <path
       style="opacity:1;fill:none;stroke:#000000;stroke-width:0.9375px;stroke-linecap:butt;stroke-linejoin:miter;stroke-opacity:1"
       d="m -460.37946,994.77291 -7.03124,55.91519 m 121.20535,-60.60269 -5.9119,62.00059"
       id="path868"
       inkscape:connector-curvature="0"
       sodipodi:nodetypes="cccc" />
    <path
       style="opacity:1;fill:none;stroke:#000000;stroke-width:0.9375px;stroke-linecap:butt;stroke-linejoin:miter;stroke-opacity:1"
       d="m -328.97394,1052.2822 6.20609,-65.545 10.71428,-2.67857 m -171.09374,-129.57589 29.7991,-4.6875 4.35268,24.77679 -30.13393,5.02231"
       id="path870"
       inkscape:connector-curvature="0"
       sodipodi:nodetypes="ccccccc" />
    <path
       style="opacity:1;fill:none;stroke:#000000;stroke-width:0.9375px;stroke-linecap:butt;stroke-linejoin:miter;stroke-opacity:1"
       d="m -479.12946,879.59434 -4.01784,-25.1116"
       id="path872"
       inkscape:connector-curvature="0" />
    <path
       style="opacity:1;fill:none;stroke:#000000;stroke-width:0.9375px;stroke-linecap:butt;stroke-linejoin:miter;stroke-opacity:1"
       d="m -474.44196,902.69702 28.79465,-4.6875 5.35714,26.11607 -29.12947,4.35268 z"
       id="path876"
       inkscape:connector-curvature="0" />
    <path
       style="opacity:1;fill:none;stroke:#000000;stroke-width:0.9375px;stroke-linecap:butt;stroke-linejoin:miter;stroke-opacity:1"
       d="m -465.06696,793.88006 2.67858,13.72768"
       id="path878"
       inkscape:connector-curvature="0" />
    <path
       style="opacity:1;fill:none;stroke:#000000;stroke-width:0.9375px;stroke-linecap:butt;stroke-linejoin:miter;stroke-opacity:1"
       d="m -465.31808,794.13118 12.72322,-2.00893 -1.50669,-6.61272 18.24776,-2.00893 8.28683,50.55803 -23.77232,3.01339 -5.18973,-30.38504 -5.85937,0.92076"
       id="path880"
       inkscape:connector-curvature="0"
       sodipodi:nodetypes="cccccccc" />
    <path
       style="opacity:1;fill:none;stroke:#000000;stroke-width:0.9375px;stroke-linecap:butt;stroke-linejoin:miter;stroke-opacity:1"
       d="m -463.27447,933.65959 2.00893,8.03571"
       id="path882"
       inkscape:connector-curvature="0" />
    <path
       style="opacity:1;fill:none;stroke:#000000;stroke-width:0.9375px;stroke-linecap:butt;stroke-linejoin:miter;stroke-opacity:1"
       d="m -456.19513,932.24699 2.00893,8.03571"
       id="path882-3"
       inkscape:connector-curvature="0" />
    <path
       style="opacity:1;fill:none;stroke:#000000;stroke-width:0.9375px;stroke-linecap:butt;stroke-linejoin:miter;stroke-opacity:1"
       d="m -449.1158,930.8344 2.00893,8.03571"
       id="path882-3-6"
       inkscape:connector-curvature="0" />
    <path
       style="opacity:1;fill:none;stroke:#000000;stroke-width:0.9375px;stroke-linecap:butt;stroke-linejoin:miter;stroke-opacity:1"
       d="m -442.03647,929.42181 2.00893,8.03571"
       id="path882-3-7"
       inkscape:connector-curvature="0" />
    <path
       style="opacity:1;fill:none;stroke:#000000;stroke-width:0.9375px;stroke-linecap:butt;stroke-linejoin:miter;stroke-opacity:1"
       d="m -455.8341,963.10082 2.00893,8.03571"
       id="path882-5"
       inkscape:connector-curvature="0" />
    <path
       style="opacity:1;fill:none;stroke:#000000;stroke-width:0.9375px;stroke-linecap:butt;stroke-linejoin:miter;stroke-opacity:1"
       d="m -449.14934,961.82634 2.00893,8.03571"
       id="path882-3-3"
       inkscape:connector-curvature="0" />
    <path
       style="opacity:1;fill:none;stroke:#000000;stroke-width:0.9375px;stroke-linecap:butt;stroke-linejoin:miter;stroke-opacity:1"
       d="m -442.46463,960.55184 2.00893,8.03571"
       id="path882-3-6-5"
       inkscape:connector-curvature="0" />
    <path
       style="opacity:1;fill:none;stroke:#000000;stroke-width:0.9375px;stroke-linecap:butt;stroke-linejoin:miter;stroke-opacity:1"
       d="m -435.77987,959.27736 2.00893,8.03571"
       id="path882-3-7-6"
       inkscape:connector-curvature="0" />
    <text
       xml:space="preserve"
       style="font-style:normal;font-variant:normal;font-weight:normal;font-stretch:normal;font-size:25px;line-height:1.25;font-family:AnjaliOldLipi;-inkscape-font-specification:AnjaliOldLipi;letter-spacing:0px;word-spacing:0px;opacity:1;fill:#000000;fill-opacity:1;stroke:none;stroke-width:0.9375"
       x="-452.67856"
       y="955.6825"
       id="text946"><tspan
         sodipodi:role="line"
         id="tspan944"
         x="-452.67856"
         y="955.6825"
         style="font-size:15px;stroke-width:0.9375">P</tspan></text>
    <path
       style="opacity:1;fill:none;stroke:#000000;stroke-width:0.9375px;stroke-linecap:butt;stroke-linejoin:miter;stroke-opacity:1"
       d="m -438.52903,925.44195 4.37561,17.46672 m 0.56808,4.90626 5.68356,25.362"
       id="path948"
       inkscape:connector-curvature="0"
       sodipodi:nodetypes="cccc" />
    <path
       style="opacity:1;fill:none;stroke:#c70000;stroke-width:0.9375;stroke-linecap:butt;stroke-linejoin:miter;stroke-miterlimit:4;stroke-dasharray:3.74999997, 0.93749999;stroke-dashoffset:0;stroke-opacity:1;marker-end:url(#TriangleInL)"
       d="m -424.15782,961.31745 -20.21258,-99.19704 c -0.40052,0.12156 -0.79584,0.26181 -1.20157,0.36468 -0.0862,0.0219 -0.68092,-0.0293 -0.71026,0 -0.0558,0.0558 0.0558,0.18095 0,0.23675 -0.023,0.023 -1.09355,0 -1.18377,0 -0.0789,0 -0.1602,-0.0191 -0.23676,0 -1.04684,0.26171 -0.37794,0.23676 -0.94702,0.23676 -0.0789,0 -0.23675,0.0789 -0.23675,0 0,-0.0789 0.23675,-0.0789 0.23675,0 0,0.3362 -0.54193,0.23675 -0.71026,0.23675 -0.0789,0 -0.23675,0.0789 -0.23675,0 0,-0.0789 0.18095,0.0558 0.23675,0 0.0558,-0.0558 -0.0353,-0.16616 0,-0.23675 0.14628,-0.29256 0.22858,-0.23676 0.47351,-0.23676"
       id="path950"
       inkscape:connector-curvature="0"
       sodipodi:nodetypes="ccccsscsssssscc" />
    <path
       style="opacity:1;fill:none;stroke:#000000;stroke-width:0.9375px;stroke-linecap:butt;stroke-linejoin:miter;stroke-opacity:1"
       d="m -457.03125,975.01845 29.12947,-1.84152"
       id="path952"
       inkscape:connector-curvature="0"
       sodipodi:nodetypes="cc" />
    <circle
       r="8.5158043"
       cy="-375.22543"
       cx="907.22974"
       id="path4225-9"
       style="color:#000000;clip-rule:nonzero;display:inline;overflow:visible;visibility:visible;opacity:1;isolation:auto;mix-blend-mode:normal;color-interpolation:sRGB;color-interpolation-filters:linearRGB;solid-color:#000000;solid-opacity:1;fill:#fed136;fill-opacity:1;fill-rule:nonzero;stroke:none;stroke-width:21.31369019;stroke-linecap:round;stroke-linejoin:miter;stroke-miterlimit:4;stroke-dasharray:none;stroke-dashoffset:0;stroke-opacity:1;color-rendering:auto;image-rendering:auto;shape-rendering:auto;text-rendering:auto;enable-background:accumulate"
       transform="rotate(140.82609)" />
    <path
       sodipodi:nodetypes="ssssssssssssssssscssscssssssscssssssscccssssssssssssssssssssssssscssssssssssssssscccssssssssssssscccc"
       inkscape:connector-curvature="0"
       id="path4200-1"
       d="m -471.38154,857.15716 c 1.53352,-1.14024 3.42599,-1.73443 5.33825,-1.67607 2.26156,0.0692 4.38446,1.01692 5.933,2.64903 0.14349,0.15124 0.17653,0.1897 0.42398,0.49344 0.24701,0.30311 0.27853,0.34385 0.39588,0.51255 1.12679,1.61906 1.65269,3.55514 1.50141,5.52733 -0.15039,1.96062 -0.97351,3.81051 -2.3267,5.22916 -0.26841,0.28141 -0.34521,0.35054 -0.8035,0.72404 -0.45867,0.37366 -0.54201,0.435 -0.87155,0.64051 -1.547,0.96478 -3.35101,1.40592 -5.17335,1.26514 -1.96083,-0.15148 -3.80111,-0.96974 -5.22035,-2.32091 -0.27683,-0.26363 -0.36327,-0.34472 -0.73208,-0.79734 -0.36886,-0.4527 -0.4307,-0.55353 -0.63264,-0.87756 -0.52591,-0.84382 -0.90018,-1.77281 -1.10348,-2.73877 -0.57998,-2.75583 0.2315,-5.62256 2.16599,-7.65201 0.25503,-0.26756 0.42574,-0.42564 0.73755,-0.68313 0.1475,-0.12183 0.31292,-0.25475 0.36759,-0.29541 z m -0.7953,0.74307 c -0.27286,0.25978 -0.57991,0.60032 -0.82328,0.91311 -1.44691,1.85979 -2.05413,4.25692 -1.67006,6.59285 0.2035,1.23777 0.67514,2.39791 1.40441,3.45447 0.12205,0.1768 0.14486,0.20645 0.39155,0.50925 0.24698,0.30311 0.27086,0.33079 0.41751,0.48384 0.99432,1.03729 2.16455,1.77879 3.49659,2.2156 2.3953,0.78531 5.00223,0.47339 7.13541,-0.85388 0.21682,-0.13496 0.6455,-0.42982 0.57225,-0.39364 -0.007,0.008 -0.0439,0.022 -0.0825,0.0417 -0.35556,0.18018 -0.77043,0.27149 -1.18151,0.26009 -0.53964,-0.0149 -1.06677,-0.20795 -1.48127,-0.54213 -0.16529,-0.13323 -0.20978,-0.17829 -0.36905,-0.37397 -0.15863,-0.19481 -0.1874,-0.2372 -0.28098,-0.41385 -0.35369,-0.66764 -0.37962,-1.47898 -0.0693,-2.16912 0.12121,-0.2696 0.25331,-0.46732 0.47072,-0.70469 0.0806,-0.0881 0.37564,-0.32843 0.48224,-0.39292 0.33592,-0.20339 0.66313,-0.31727 1.0351,-0.36037 0.55485,-0.0645 1.1375,0.0668 1.60208,0.36131 0.24133,0.15289 0.38689,0.28109 0.58409,0.5142 l 0.13285,0.15706 -0.0207,0.0173 -0.0207,0.0173 -0.1328,-0.15714 c -0.1305,-0.15439 -0.17224,-0.19709 -0.29845,-0.30531 -0.18017,-0.15447 -0.45229,-0.31452 -0.68994,-0.40575 -0.3054,-0.11718 -0.65234,-0.17302 -0.9836,-0.15832 -0.20281,0.009 -0.4431,0.0519 -0.63935,0.11467 -0.16299,0.0519 -0.36618,0.14597 -0.53279,0.24656 -0.0863,0.0519 -0.3299,0.24279 -0.41126,0.32199 -0.42386,0.41259 -0.67989,0.95322 -0.73006,1.54174 -0.0221,0.25868 -0.006,0.48802 0.0512,0.74598 0.0586,0.26237 0.1534,0.49517 0.30247,0.74228 0.0518,0.0858 0.24685,0.33513 0.32345,0.41338 0.22215,0.2269 0.45579,0.39049 0.74467,0.52128 0.67987,0.30791 1.46573,0.28707 2.12451,-0.0566 0.1443,-0.0755 0.22736,-0.12222 0.41002,-0.26347 0.0975,-0.0755 0.19096,-0.14589 0.19425,-0.14888 0,0 0.16387,-0.14212 0.18158,-0.1547 0.0149,-0.0102 0.11776,-0.10712 0.14192,-0.13126 0.0298,-0.0299 0.37364,-0.38105 0.52976,-0.56218 1.53254,-1.77808 2.25826,-4.13305 1.99676,-6.47936 -0.15586,-1.39829 -0.6521,-2.71691 -1.4649,-3.8927 -0.12171,-0.17602 -0.14606,-0.20771 -0.39373,-0.51177 -0.25029,-0.30735 -0.27206,-0.3326 -0.41966,-0.48636 -1.29146,-1.34551 -2.88621,-2.1957 -4.71872,-2.51556 -0.47514,-0.0829 -1.08437,-0.12883 -1.58867,-0.11978 -1.38277,0.0252 -2.75069,0.39277 -3.95627,1.06387 -0.17695,0.0985 -0.32981,0.18522 -0.27058,0.15698 0.0137,-0.008 0.12469,-0.0613 0.18559,-0.0919 0.1997,-0.0987 0.48961,-0.21746 0.71164,-0.29139 0.75731,-0.25238 1.54023,-0.34912 2.33514,-0.28872 1.52609,0.11609 2.91906,0.79262 3.95002,1.91863 0.10859,0.11852 0.3349,0.39639 0.42455,0.5212 0.32983,0.45899 0.56924,0.90548 0.76153,1.42007 0.24497,0.65554 0.37447,1.37706 0.37244,2.07498 -0.002,0.39631 -0.0477,0.84295 -0.12754,1.22519 -0.1549,0.74094 -0.45438,1.4542 -0.87403,2.08158 -0.27044,0.40433 -0.57183,0.75408 -0.94206,1.09337 -0.11237,0.10295 -0.49964,0.41274 -0.60625,0.48494 -0.4501,0.30477 -0.80953,0.49525 -1.26536,0.67072 -1.08926,0.41927 -2.27222,0.50799 -3.42048,0.25655 -1.05009,-0.22989 -2.03019,-0.74897 -2.80475,-1.48543 -0.20137,-0.19143 -0.34196,-0.34503 -0.55379,-0.60497 l -0.16706,-0.20511 0.0208,-0.0173 0.0207,-0.0173 0.16917,0.20764 c 0.18023,0.22115 0.26706,0.31884 0.4224,0.47519 0.88342,0.8888 2.03584,1.47434 3.27372,1.66325 1.32746,0.2026 2.65911,-0.0417 3.82061,-0.70162 0.26772,-0.1521 0.46409,-0.28628 0.7416,-0.50689 0.22583,-0.17955 0.33932,-0.27857 0.48997,-0.42769 0.89308,-0.88392 1.47856,-2.02464 1.67426,-3.26209 0.14656,-0.92671 0.0755,-1.85469 -0.21009,-2.7453 -0.1856,-0.57862 -0.46418,-1.12766 -0.83304,-1.64163 -0.13946,-0.19434 -0.3895,-0.49139 -0.56214,-0.66796 -0.77001,-0.78719 -1.73355,-1.3382 -2.80319,-1.60285 -0.4429,-0.10955 -0.95,-0.17177 -1.40826,-0.17263 -1.15849,0 -2.29546,0.3256 -3.25911,0.96273 -0.18158,0.12002 -0.28361,0.1827 -0.48985,0.35007 -0.11753,0.0909 -0.16427,0.13598 -0.23541,0.19481 -0.0453,0.0338 -0.17979,0.15556 -0.30691,0.27653 z"
       style="opacity:1;fill:#000000;fill-opacity:1;stroke:#000000;stroke-width:0.19335049;stroke-linecap:butt;stroke-linejoin:round;stroke-miterlimit:4;stroke-dasharray:none;stroke-opacity:1" />
    <text
       xml:space="preserve"
       style="font-style:normal;font-weight:normal;font-size:12px;line-height:0%;font-family:sans-serif;letter-spacing:0px;word-spacing:0px;opacity:1;fill:#000000;fill-opacity:1;stroke:none;stroke-width:1px;stroke-linecap:butt;stroke-linejoin:miter;stroke-opacity:1"
       x="-456.64545"
       y="960.63947"
       id="text5857-2"
       transform="rotate(-3.0696073)"><tspan
         sodipodi:role="line"
         id="tspan5859-7"
         x="-456.64545"
         y="960.63947"
         style="font-size:6.25px;line-height:1.25;stroke-width:1px">Alter Heuweg</tspan></text>
    <text
       xml:space="preserve"
       style="font-style:normal;font-weight:normal;font-size:12px;line-height:0%;font-family:sans-serif;letter-spacing:0px;word-spacing:0px;opacity:1;fill:#000000;fill-opacity:1;stroke:none;stroke-width:1px;stroke-linecap:butt;stroke-linejoin:miter;stroke-opacity:1"
       x="-1099.8796"
       y="-303.25836"
       id="text5857-0"
       transform="rotate(-81.946625)"><tspan
         sodipodi:role="line"
         id="tspan5859-9"
         x="-1099.8796"
         y="-303.25836"
         style="font-size:6.25px;line-height:1.25;stroke-width:1px">Am Pulverberg</tspan></text>
    <text
       xml:space="preserve"
       style="font-style:normal;font-weight:normal;font-size:12px;line-height:0%;font-family:sans-serif;letter-spacing:0px;word-spacing:0px;opacity:1;fill:#000000;fill-opacity:1;stroke:none;stroke-width:1px;stroke-linecap:butt;stroke-linejoin:miter;stroke-opacity:1"
       x="-978.86011"
       y="-239.99913"
       id="text5857-3"
       transform="rotate(-84.765479)"><tspan
         sodipodi:role="line"
         id="tspan5859-6"
         x="-978.86011"
         y="-239.99913"
         style="font-size:6.25px;line-height:1.25;stroke-width:1px">Neustädter Straße</tspan></text>
    <path
       style="opacity:1;fill:none;stroke:#000000;stroke-width:0.9375;stroke-linecap:butt;stroke-linejoin:miter;stroke-miterlimit:4;stroke-dasharray:0.93749999, 0.93749999;stroke-dashoffset:0;stroke-opacity:1"
       d="M -389.17738,971.5658 -432.02467,761.9867"
       id="path1409"
       inkscape:connector-curvature="0"
       sodipodi:nodetypes="cc" />
    <path
       style="opacity:1;fill:none;stroke:#000000;stroke-width:0.9375;stroke-linecap:butt;stroke-linejoin:miter;stroke-miterlimit:4;stroke-dasharray:0.93749999, 0.93749999;stroke-dashoffset:0;stroke-opacity:1"
       d="M -469.64305,976.04497 -499.63479,794.48325"
       id="path1411"
       inkscape:connector-curvature="0"
       sodipodi:nodetypes="cc" />
    <text
       xml:space="preserve"
       style="font-style:normal;font-variant:normal;font-weight:normal;font-stretch:normal;font-size:25px;line-height:1.25;font-family:AnjaliOldLipi;-inkscape-font-specification:AnjaliOldLipi;letter-spacing:0px;word-spacing:0px;fill:#000000;fill-opacity:1;stroke:none;stroke-width:0.9375"
       x="-448.15848"
       y="803.25507"
       id="text2227"><tspan
         sodipodi:role="line"
         id="tspan2225"
         x="-448.15848"
         y="821.33624"
         style="stroke-width:0.9375"></tspan></text>
    <text
       xml:space="preserve"
       style="font-style:normal;font-weight:normal;font-size:12px;line-height:0%;font-family:sans-serif;letter-spacing:0px;word-spacing:0px;opacity:1;fill:#000000;fill-opacity:1;stroke:none;stroke-width:1px;stroke-linecap:butt;stroke-linejoin:miter;stroke-opacity:1"
       x="-470.00632"
       y="794.95587"
       id="text5857-3-3"
       transform="rotate(-0.88245607)"><tspan
         sodipodi:role="line"
         id="tspan5859-6-9"
         x="-470.00632"
         y="794.95587"
         style="font-size:6.25000048px;line-height:1.25;stroke-width:1px">Kirche</tspan></text>
  </g>
</svg>
