<?xml version="1.0" encoding="UTF-8" standalone="no"?>
<!-- Created with Inkscape (http://www.inkscape.org/) -->

<svg
   xmlns:dc="http://purl.org/dc/elements/1.1/"
   xmlns:cc="http://creativecommons.org/ns#"
   xmlns:rdf="http://www.w3.org/1999/02/22-rdf-syntax-ns#"
   xmlns:svg="http://www.w3.org/2000/svg"
   xmlns="http://www.w3.org/2000/svg"
   xmlns:sodipodi="http://sodipodi.sourceforge.net/DTD/sodipodi-0.dtd"
   xmlns:inkscape="http://www.inkscape.org/namespaces/inkscape"
   width="85mm"
   height="55mm"
   viewBox="0 0 301.1811 194.88189"
   id="svg2"
   version="1.1"
   inkscape:version="0.91 r"
   sodipodi:docname="rueckseite.svg">
  <defs
     id="defs4" />
  <sodipodi:namedview
     id="base"
     pagecolor="#ffffff"
     bordercolor="#666666"
     borderopacity="1.0"
     inkscape:pageopacity="0.0"
     inkscape:pageshadow="2"
     inkscape:zoom="1.979899"
     inkscape:cx="129.05242"
     inkscape:cy="86.911747"
     inkscape:document-units="px"
     inkscape:current-layer="layer1"
     showgrid="false"
     inkscape:window-width="1600"
     inkscape:window-height="848"
     inkscape:window-x="0"
     inkscape:window-y="0"
     inkscape:window-maximized="1" />
  <metadata
     id="metadata7">
    <rdf:RDF>
      <cc:Work
         rdf:about="">
        <dc:format>image/svg+xml</dc:format>
        <dc:type
           rdf:resource="http://purl.org/dc/dcmitype/StillImage" />
        <dc:title></dc:title>
      </cc:Work>
    </rdf:RDF>
  </metadata>
  <g
     inkscape:label="Layer 1"
     inkscape:groupmode="layer"
     id="layer1"
     transform="translate(0,-857.48031)">
    <path
       d="m 126.42386,897.71465 3.31144,9.56279 -83.318187,32.0552 17.582836,46.14176 96.661661,-39.17482 -10.70798,-29.49742 6.64856,-2.38132 -9.76919,-24.30546 z"
       id="rect3395"
       inkscape:connector-curvature="0"
       sodipodi:nodetypes="ccccccccc"
       style="fill:none;stroke:#000000;stroke-opacity:1" />
    <text
       xml:space="preserve"
       style="font-style:normal;font-weight:normal;font-size:40px;line-height:125%;font-family:sans-serif;text-align:center;letter-spacing:0px;word-spacing:0px;text-anchor:middle;fill:#000000;fill-opacity:1;stroke:none;stroke-width:1px;stroke-linecap:butt;stroke-linejoin:miter;stroke-opacity:1"
       x="-250.74957"
       y="858.19452"
       id="text4200"
       sodipodi:linespacing="125%"
       transform="matrix(0.93456162,-0.35580131,0.35580131,0.93456162,0,0)"><tspan
         sodipodi:role="line"
         id="tspan4202"
         x="-250.74957"
         y="858.19452"
         style="font-size:10px;text-align:center;text-anchor:middle">Harburger</tspan><tspan
         sodipodi:role="line"
         x="-250.74957"
         y="870.69452"
         style="font-size:10px;text-align:center;text-anchor:middle"
         id="tspan4204">Rathausplatz</tspan></text>
    <path
       style="fill:none;fill-rule:evenodd;stroke:#000000;stroke-width:1px;stroke-linecap:butt;stroke-linejoin:miter;stroke-opacity:1"
       d="m 179.47975,946.28567 c 13.8896,-8.83883 13.8896,-8.71256 13.8896,-8.71256 l 35.86041,53.28559 -39.39595,26.3902 -14.89975,-21.7183 25.12755,-16.92 -2.90419,-4.9245 -3.91434,2.5254 -3.53554,-5.05083 -21.2132,14.52093 -13.13198,-19.19293 25.88516,-16.66746 z"
       id="path5806"
       inkscape:connector-curvature="0" />
    <path
       style="fill:none;fill-rule:evenodd;stroke:#000000;stroke-width:1px;stroke-linecap:butt;stroke-linejoin:miter;stroke-opacity:1"
       d="m 164.65179,859.70035 17.85842,43.14876 54.4851,91.54509 -0.53036,13.8345 -60.52087,40.8201"
       id="path5810"
       inkscape:connector-curvature="0"
       sodipodi:nodetypes="ccccc" />
    <path
       style="fill:none;fill-rule:evenodd;stroke:#000000;stroke-width:1px;stroke-linecap:butt;stroke-linejoin:miter;stroke-opacity:1"
       d="m 259.5037,994.3464 -13.79639,10.5386 0.37468,-11.7479 -54.1016,-92.43456 12.75317,-7.19734"
       id="path5812"
       inkscape:connector-curvature="0"
       sodipodi:nodetypes="ccccc" />
    <path
       style="fill:none;fill-rule:evenodd;stroke:#000000;stroke-width:1px;stroke-linecap:butt;stroke-linejoin:miter;stroke-opacity:1"
       d="m 201.07176,884.9189 -12.2481,7.19735 -13.08186,-32.93893"
       id="path5814"
       inkscape:connector-curvature="0"
       sodipodi:nodetypes="ccc" />
    <text
       xml:space="preserve"
       style="font-style:normal;font-weight:normal;font-size:40px;line-height:125%;font-family:sans-serif;letter-spacing:0px;word-spacing:0px;fill:#000000;fill-opacity:1;stroke:none;stroke-width:1px;stroke-linecap:butt;stroke-linejoin:miter;stroke-opacity:1"
       x="871.7608"
       y="168.96878"
       id="text5816"
       sodipodi:linespacing="125%"
       transform="matrix(0.37752167,0.92600075,-0.92600075,0.37752167,0,0)"><tspan
         sodipodi:role="line"
         id="tspan5818"
         x="871.7608"
         y="168.96878"
         style="font-size:6.25px">Harburger</tspan><tspan
         sodipodi:role="line"
         x="871.7608"
         y="176.78128"
         style="font-size:6.25px"
         id="tspan5836" /></text>
    <path
       style="fill:none;fill-rule:evenodd;stroke:#c70000;stroke-width:1;stroke-linecap:butt;stroke-linejoin:miter;stroke-miterlimit:4;stroke-dasharray:2, 1;stroke-dashoffset:0;stroke-opacity:1"
       d="m 190.99964,927.9242 -26.61086,24.18296 -32.49628,14.74561 0,0 -1.27878,-2.30687"
       id="path5822"
       inkscape:connector-curvature="0"
       sodipodi:nodetypes="ccccc" />
    <path
       sodipodi:type="star"
       style="fill:none;fill-opacity:1;stroke:#c70000;stroke-width:1;stroke-miterlimit:4;stroke-dasharray:2, 1;stroke-dashoffset:0;stroke-opacity:1"
       id="path5826"
       sodipodi:sides="3"
       sodipodi:cx="138.3909"
       sodipodi:cy="981.0202"
       sodipodi:r1="4.4414597"
       sodipodi:r2="2.2207298"
       sodipodi:arg1="0.099668652"
       sodipodi:arg2="1.1468662"
       inkscape:flatsided="false"
       inkscape:rounded="0"
       inkscape:randomized="0"
       d="m 142.81032,981.46214 -3.50593,1.58221 -3.50593,1.58221 0.38273,-3.82733 0.38273,-3.82733 3.1232,2.24512 z"
       inkscape:transform-center-x="-1.008237"
       inkscape:transform-center-y="-0.11616091"
       transform="matrix(0.99887984,-0.04731879,0.04731879,0.99887984,-55.305656,-11.398185)" />
    <circle
       r="10.827703"
       cy="-808.6264"
       cx="503.24716"
       id="path4225"
       style="color:#000000;clip-rule:nonzero;display:inline;overflow:visible;visibility:visible;opacity:1;isolation:auto;mix-blend-mode:normal;color-interpolation:sRGB;color-interpolation-filters:linearRGB;solid-color:#000000;solid-opacity:1;fill:#fed136;fill-opacity:1;fill-rule:nonzero;stroke:none;stroke-width:27.10000038;stroke-linecap:round;stroke-linejoin:miter;stroke-miterlimit:4;stroke-dasharray:none;stroke-dashoffset:0;stroke-opacity:1;color-rendering:auto;image-rendering:auto;shape-rendering:auto;text-rendering:auto;enable-background:accumulate"
       transform="matrix(-0.77523218,0.6316764,-0.6316764,-0.77523218,0,0)" />
    <path
       sodipodi:nodetypes="ssssssssssssssssscssscssssssscssssssscccssssssssssssssssssssssssscssssssssssssssscccssssssssssssscccc"
       inkscape:connector-curvature="0"
       id="path4200"
       d="m 114.18649,936.10978 c 1.94984,-1.44977 4.35608,-2.20526 6.78749,-2.13105 2.87554,0.0878 5.57477,1.29293 7.54371,3.3682 0.18245,0.19232 0.22445,0.24117 0.53909,0.62733 0.31406,0.3854 0.35414,0.43729 0.50335,0.65173 1.43269,2.05862 2.10137,4.52032 1.90902,7.0279 -0.19122,2.49287 -1.2378,4.84502 -2.95836,6.64881 -0.34128,0.35779 -0.43893,0.44575 -1.02164,0.92056 -0.58319,0.47517 -0.68916,0.5531 -1.10816,0.8144 -1.96699,1.22677 -4.26076,1.78768 -6.57783,1.60867 -2.49316,-0.19267 -4.83305,-1.23302 -6.63759,-2.95106 -0.35198,-0.33515 -0.46189,-0.43828 -0.93083,-1.01372 -0.469,-0.57562 -0.54762,-0.70386 -0.80439,-1.11587 -0.66868,-1.07291 -1.14456,-2.25403 -1.40305,-3.48225 -0.73744,-3.50398 0.29434,-7.14907 2.75402,-9.72944 0.32426,-0.34016 0.54132,-0.54118 0.93778,-0.86862 0.18754,-0.15489 0.39787,-0.32391 0.46739,-0.37559 z m -1.01122,0.94484 c -0.34693,0.33025 -0.73734,0.76327 -1.04678,1.16099 -1.83973,2.36469 -2.6118,5.41258 -2.12346,8.38272 0.25875,1.57382 0.85843,3.04888 1.78569,4.39226 0.15518,0.22483 0.18418,0.26254 0.49785,0.64753 0.31403,0.3854 0.34439,0.4206 0.53086,0.61514 1.26426,1.31893 2.75218,2.26173 4.44585,2.8171 3.04558,0.99855 6.36025,0.60194 9.07256,-1.08569 0.27568,-0.17155 0.82074,-0.5465 0.7276,-0.5005 -0.009,0.006 -0.0558,0.028 -0.10494,0.0531 -0.45208,0.22909 -0.97959,0.34524 -1.50226,0.3307 -0.68615,-0.0192 -1.35638,-0.26434 -1.88342,-0.68926 -0.21016,-0.16938 -0.26673,-0.22675 -0.46924,-0.47546 -0.20169,-0.24771 -0.23827,-0.30164 -0.35726,-0.52624 -0.44971,-0.84889 -0.48268,-1.88048 -0.0881,-2.75798 0.15412,-0.34278 0.32208,-0.59423 0.59851,-0.89605 0.10254,-0.11195 0.47762,-0.41756 0.61316,-0.49962 0.42712,-0.25851 0.84316,-0.40332 1.31611,-0.45818 0.70549,-0.0818 1.44632,0.0853 2.03703,0.45946 0.30684,0.19436 0.49192,0.35732 0.74265,0.65377 l 0.16892,0.19968 -0.0263,0.0216 -0.0263,0.0216 -0.16885,-0.1998 c -0.16593,-0.19628 -0.219,-0.25057 -0.37948,-0.3882 -0.22908,-0.1964 -0.57507,-0.39987 -0.87724,-0.51584 -0.38831,-0.14901 -0.82944,-0.22005 -1.25064,-0.20137 -0.25787,0.0111 -0.56339,0.0663 -0.81292,0.14586 -0.20724,0.066 -0.46559,0.18561 -0.67743,0.31344 -0.10975,0.0663 -0.41947,0.3087 -0.52291,0.40938 -0.53893,0.52461 -0.86447,1.21206 -0.92826,1.96039 -0.0281,0.3289 -0.008,0.62044 0.0651,0.94841 0.0745,0.33369 0.19504,0.62966 0.38459,0.94386 0.0658,0.10909 0.31386,0.42608 0.41126,0.5256 0.28246,0.2885 0.57952,0.49647 0.94683,0.66282 0.86445,0.39146 1.86365,0.36497 2.70128,-0.0718 0.18348,-0.0957 0.28909,-0.15543 0.52133,-0.33503 0.124,-0.0959 0.24281,-0.18549 0.24699,-0.18934 0,0 0.20836,-0.18065 0.23088,-0.19669 0.019,-0.0134 0.14972,-0.13618 0.18045,-0.16688 0.0379,-0.0379 0.47507,-0.48445 0.67357,-0.71477 1.9486,-2.2608 2.87134,-5.25511 2.53885,-8.23843 -0.19816,-1.77793 -0.82912,-3.45454 -1.86258,-4.94945 -0.15476,-0.22383 -0.18572,-0.2641 -0.50062,-0.65073 -0.31824,-0.39077 -0.34592,-0.42287 -0.5336,-0.6184 -1.64207,-1.71084 -3.66976,-2.79181 -5.99977,-3.1985 -0.60413,-0.10544 -1.37876,-0.16385 -2.01996,-0.15228 -1.75817,0.0317 -3.49746,0.49939 -5.03034,1.35266 -0.22499,0.12523 -0.41934,0.23546 -0.34403,0.19958 0.0174,-0.008 0.15854,-0.0785 0.23597,-0.1168 0.25392,-0.12552 0.62253,-0.27646 0.90484,-0.37052 0.96291,-0.32081 1.95837,-0.44385 2.96909,-0.36702 1.9404,0.14754 3.71153,1.00779 5.02238,2.43943 0.13808,0.15076 0.42582,0.504 0.53981,0.6627 0.41937,0.58368 0.72378,1.15129 0.96827,1.8056 0.31148,0.83354 0.47614,1.7509 0.47356,2.63832 -0.002,0.50394 -0.0606,1.0718 -0.16217,1.55782 -0.19695,0.94211 -0.57774,1.84903 -1.11132,2.64667 -0.34385,0.5141 -0.72706,0.95881 -1.19781,1.39019 -0.14287,0.13092 -0.63528,0.52485 -0.77084,0.6166 -0.57229,0.38756 -1.0293,0.62978 -1.60888,0.85286 -1.38497,0.53307 -2.88909,0.6459 -4.34908,0.32622 -1.33517,-0.29237 -2.58135,-0.95232 -3.56619,-1.88871 -0.25604,-0.24346 -0.4348,-0.43875 -0.70414,-0.76928 l -0.21241,-0.26073 0.0264,-0.0216 0.0263,-0.0216 0.2151,0.26399 c 0.22915,0.28122 0.33956,0.40543 0.53707,0.60416 1.12326,1.13017 2.58854,1.87465 4.16248,2.11483 1.68784,0.25758 3.38101,-0.0531 4.85784,-0.89209 0.34041,-0.19337 0.59009,-0.36403 0.94293,-0.64449 0.28714,-0.22833 0.43144,-0.35423 0.62299,-0.54387 1.13554,-1.12386 1.87997,-2.57428 2.1288,-4.14764 0.18634,-1.17832 0.096,-2.35821 -0.26713,-3.4906 -0.23599,-0.73572 -0.5902,-1.4338 -1.0592,-2.08733 -0.17731,-0.24708 -0.49524,-0.62483 -0.71474,-0.84925 -0.97906,-1.00098 -2.20419,-1.70153 -3.56422,-2.03801 -0.56313,-0.13934 -1.20791,-0.21839 -1.79058,-0.21953 -1.47299,-0.003 -2.91863,0.41405 -4.1439,1.22408 -0.23088,0.15265 -0.3606,0.23232 -0.62283,0.44512 -0.14944,0.11558 -0.20887,0.17286 -0.29933,0.24774 -0.0576,0.0432 -0.2286,0.19772 -0.39023,0.35157 z"
       style="fill:#000000;fill-opacity:1;stroke:#000000;stroke-width:0.24584191;stroke-linecap:butt;stroke-linejoin:round;stroke-miterlimit:4;stroke-dasharray:none;stroke-opacity:1" />
    <text
       xml:space="preserve"
       style="font-style:normal;font-weight:normal;font-size:40px;line-height:125%;font-family:sans-serif;letter-spacing:0px;word-spacing:0px;fill:#000000;fill-opacity:1;stroke:none;stroke-width:1px;stroke-linecap:butt;stroke-linejoin:miter;stroke-opacity:1"
       x="877.20569"
       y="289.14023"
       id="text5838"
       sodipodi:linespacing="125%"
       transform="matrix(0.49827987,0.86701625,-0.86701625,0.49827987,0,0)"><tspan
         sodipodi:role="line"
         id="tspan5840"
         x="877.20569"
         y="289.14023"
         style="font-size:6.25px">Rathausstraße</tspan></text>
    <path
       style="fill:none;fill-rule:evenodd;stroke:#000000;stroke-width:1px;stroke-linecap:butt;stroke-linejoin:miter;stroke-opacity:1"
       d="m 260.23716,1032.1704 -13.95298,-20.9476 13.8883,-10.3828"
       id="path5853"
       inkscape:connector-curvature="0"
       sodipodi:nodetypes="ccc" />
    <path
       style="fill:none;fill-rule:evenodd;stroke:#000000;stroke-width:1px;stroke-linecap:butt;stroke-linejoin:miter;stroke-opacity:1"
       d="m 191.82686,1049.6723 47.50001,-30.8036 20.08928,28.8393"
       id="path5855"
       inkscape:connector-curvature="0"
       sodipodi:nodetypes="ccc" />
    <text
       xml:space="preserve"
       style="font-style:normal;font-weight:normal;font-size:6.25px;line-height:125%;font-family:sans-serif;letter-spacing:0px;word-spacing:0px;fill:#000000;fill-opacity:1;stroke:none;stroke-width:1px;stroke-linecap:butt;stroke-linejoin:miter;stroke-opacity:1"
       x="-421.90381"
       y="975.40802"
       id="text5857"
       sodipodi:linespacing="125%"
       transform="matrix(0.8294449,-0.55858855,0.55858855,0.8294449,0,0)"><tspan
         sodipodi:role="line"
         id="tspan5859"
         x="-421.90381"
         y="975.40802">Bremer Straße</tspan></text>
  </g>
</svg>
